<?xml version="1.0" standalone="no"?>
<!DOCTYPE svg PUBLIC "-//W3C//DTD SVG 20010904//EN"
 "http://www.w3.org/TR/2001/REC-SVG-20010904/DTD/svg10.dtd">
<svg version="1.0" xmlns="http://www.w3.org/2000/svg"
 width="275.000000pt" height="183.000000pt" viewBox="0 0 275.000000 183.000000"
 preserveAspectRatio="xMidYMid meet">

<g transform="translate(0.000000,183.000000) scale(0.100000,-0.100000)"
fill="#000000" stroke="none">
<path d="M0 1375 l0 -455 1375 0 1375 0 0 225 0 225 -917 2 -918 3 -3 228 -2
227 -455 0 -455 0 0 -455z m644 9 l172 -299 -178 -3 c-98 -1 -259 -1 -358 0
l-180 3 178 307 c97 169 181 303 185 299 4 -4 86 -143 181 -307z"/>
<path d="M0 230 l0 -230 1375 0 1375 0 0 230 0 230 -1375 0 -1375 0 0 -230z"/>
</g>
</svg>
